<?xml version="1.0" encoding="UTF-8"?>
<svg id="Layer_1" data-name="Layer 1" xmlns="http://www.w3.org/2000/svg" viewBox="0 0 122.89 83.74">
  <defs>
    <style>
      .cls-1 {
        fill: #231f20;
      }
    </style>
  </defs>
  <path class="cls-1" d="M122.25,7.98c-.41-.65-.78-1.35-1.55-1.4l-1.25-.23c-.12-.02-.25-.02-.37,0l-1.29,.25c-.14,.02-.29,.1-.41,.18l-3.29,2.46-.46-.9c-.05-.11-.55-.66-.95-1.07-.29-.3-.64-.52-1.04-.66l-2.23-.68-1.96,.42c-.82,.11-1.52,.61-1.89,1.34l-.12,.13c-.54,1.09-.6,2.35-.14,3.48l.37,.94c.05,.12,.11,.22,.19,.31l2.57,2.75c-.17,.12-.33,.26-.49,.44-3.49,3.79-7.27,7.32-11.3,10.55-8.18,6.54-15.46,9.99-21.07,9.99-4.21,0-6.63-2.02-6.63-5.53,0-8.86,9.99-21.08,14.69-21.54,.09,.16,.21,.39,.29,.55,.36,.75,.86,1.77,1.95,1.77,1.54,0,2.58-1.4,2.58-3.47s-3.21-7.12-9.43-7.12c-5.84,0-12.47,6.94-16.16,14.38-3.74,.42-7.45,1.04-11.11,1.91,.57-2.15,.87-4.36,.89-6.58,0-4.88-3.79-9.32-7.95-9.32-7.27,0-15.52,10.19-18.98,14.97,2.12-6.1,3.65-9.98,3.9-10.44,.98-1.4-.7-3.79-2.24-4.92-1.95-1.43-3.96-1.23-5.26,.51C13.56,12.93,0,52.97,0,78.78c0,3.22,2.45,4.82,4.72,4.95,.1,0,.21,.01,.31,.01,2.34,0,4.78-1.49,5.12-4.47,1.61-14,5.19-29.02,8.84-41.81,.07-.06,.12-.13,.17-.21,.06-.1,.12-.23,.38-.76C28.59,17.64,37.84,6.83,44.92,6.83c.07,0,.15,0,.21,.03,.03,.07,.04,.15,.04,.22,0,3.24-1.75,8.3-4.74,13.88-2.53,1.08-4.98,2.34-7.33,3.77-8.28,5.08-11.99,10.63-11.99,13.87,0,2.42,2.39,5.76,6.87,5.76,3.5,0,9.62-4.41,14.88-10.73,2.95-3.47,5.37-7.34,7.2-11.51,3.63-1.1,7.32-1.98,11.06-2.66-.73,2.19-1.15,4.31-1.15,6.21-.04,4.3,1.79,8.41,5.01,11.27,3.09,2.72,7.07,4.22,11.2,4.22,14.51,0,31.49-19.22,34.74-23.07h0s2.42,2.77,2.42,2.77c.34,.38,.49-.06,.92-.36l3.21-2.28c.06-.05,.12-.1,.17-.16l3.89-4.44s.06-.07,.08-.12l.59-.91c.9-1.4,.93-3.2,.05-4.63ZM27.24,37.61s0-.02,0-.03c0-1.91,2.79-5.56,8.69-9.22-4.17,6.1-7.51,9.07-8.69,9.25Z"/>
</svg>